#!OML:ASF X:\für Bonn\!DataBase\2005_08_10_Bjorn_Final\c3d\bjorn.ASF
:FULLY-SPECIFIED
:DEGREES
576
root -0.438642 1.23911 23.8299 -469.451 -177.849 368.902
lowerback 22.992 1.11429 0.153763
upperback 8.68914 -0.064305 -3.83055
thorax -3.29928 -0.643405 -4.16504
lowerneck -21.2723 -8.15199 -3.51271
upperneck 3.09947 -11.5593 9.24535
head 5.04869 -5.40268 2.21182
rclavicle -6.36111e-015 -3.57812e-015
rhumerus -208.854 -182.677 127.473
rradius 82.9137
rwrist -7.39756
rhand -32.7679 16.6385
rfingers 7.12502
rthumb -5.99017 -13.2568
lclavicle -6.36111e-015 -3.57812e-015
lhumerus -375.463 -36.0783 -301.853
lradius 45.1145
lwrist -26.1865
lhand -28.4378 -17.8678
lfingers 7.12502
lthumb -1.80875 12.1043
rfemur -26.7752 -16.558 -13.3492
rtibia 110.072
rfoot 37.0419 13.9952
rtoes 1.88054
lfemur -39.1447 -1.43118 0.0257421
ltibia 120.732
lfoot 31.3762 -10.3406
ltoes 11.221
577
root -0.437781 1.23928 23.8305 -469.473 -177.876 368.883
lowerback 23.026 1.12097 0.191816
upperback 8.67558 -0.0492619 -3.83667
thorax -3.32934 -0.635728 -4.19785
lowerneck -21.2499 -8.13759 -3.54383
upperneck 3.05821 -11.526 9.23484
head 5.0311 -5.38872 2.21897
rclavicle -1.11319e-014 6.50026e-014
rhumerus -209.109 -183.042 127.121
rradius 82.403
rwrist -7.44254
rhand -32.4714 16.5905
rfingers 7.12502
rthumb -5.70386 -13.3128
lclavicle -1.11319e-014 6.50026e-014
lhumerus -375.778 -36.1679 -301.608
lradius 45.1714
lwrist -26.1006
lhand -28.5973 -17.8816
lfingers 7.12502
lthumb -1.96277 12.0892
rfemur -26.7542 -16.5339 -13.3013
rtibia 110.066
rfoot 37.0254 14.0319
rtoes 1.67949
lfemur -39.0967 -1.48754 0.0216526
ltibia 120.694
lfoot 31.308 -10.4224
ltoes 10.6633
578
root -0.437622 1.23912 23.8313 -469.492 -177.883 368.864
lowerback 23.0486 1.12569 0.181303
upperback 8.68035 -0.0466094 -3.82364
thorax -3.33536 -0.635658 -4.1785
lowerneck -21.2973 -8.1155 -3.61105
upperneck 3.05037 -11.4694 9.2144
head 5.0343 -5.36034 2.22857
rclavicle 0 -9.74045e-015
rhumerus -209.259 -183.445 126.777
rradius 81.8412
rwrist -7.49334
rhand -32.1627 16.5807
rfingers 7.12502
rthumb -5.40586 -13.3303
lclavicle 0 -9.74045e-015
lhumerus -376.074 -36.1281 -301.322
lradius 45.1866
lwrist -26.0955
lhand -28.7374 -17.8825
lfingers 7.12502
lthumb -2.09808 12.087
rfemur -26.7444 -16.5083 -13.2783
rtibia 110.06
rfoot 37.0193 13.9968
rtoes 1.62773
lfemur -39.0693 -1.5521 -0.00663213
ltibia 120.664
lfoot 31.2679 -10.4011
ltoes 10.2569
579
root -0.436788 1.23882 23.8315 -469.501 -177.902 368.844
lowerback 23.0676 1.12344 0.189421
upperback 8.67261 -0.0479729 -3.82111
thorax -3.35325 -0.636252 -4.1803
lowerneck -21.2914 -8.08146 -3.63942
upperneck 2.99998 -11.404 9.17378
head 5.01197 -5.33161 2.22973
rclavicle 1.59028e-014 -1.92821e-014
rhumerus -209.447 -183.855 126.418
rradius 81.329
rwrist -7.51689
rhand -31.8072 16.5083
rfingers 7.12502
rthumb -5.06258 -13.4112
lclavicle 1.59028e-014 -1.92821e-014
lhumerus -376.4 -36.1942 -301.056
lradius 45.2352
lwrist -26.0093
lhand -28.7588 -17.838
lfingers 7.12502
lthumb -2.11875 12.1312
rfemur -26.7339 -16.4842 -13.2378
rtibia 110.056
rfoot 37.0124 13.962
rtoes 1.68159
lfemur -39.0351 -1.6058 -0.0154441
ltibia 120.638
lfoot 31.2205 -10.3935
ltoes 9.9032
580
root -0.436639 1.23872 23.8321 -469.528 -177.925 368.835
lowerback 23.1223 1.12166 0.187991
upperback 8.6454 -0.0479613 -3.79532
thorax -3.41029 -0.635595 -4.15207
lowerneck -21.2425 -8.06452 -3.72949
upperneck 2.96016 -11.3434 9.13652
head 4.99032 -5.3052 2.2418
rclavicle 2.70347e-014 -3.97569e-015
rhumerus -209.634 -184.296 126.101
rradius 80.7773
rwrist -7.61892
rhand -31.4136 16.5038
rfingers 7.12502
rthumb -4.68249 -13.4245
lclavicle 2.70347e-014 -3.97569e-015
lhumerus -376.771 -36.2346 -300.696
lradius 45.2332
lwrist -25.9672
lhand -28.7822 -17.786
lfingers 7.12502
lthumb -2.14133 12.183
rfemur -26.7039 -16.4524 -13.1975
rtibia 110.046
rfoot 37.0124 13.9148
rtoes 1.66058
lfemur -38.9932 -1.67271 -0.0211274
ltibia 120.607
lfoot 31.1965 -10.343
ltoes 9.6705
581
root -0.436727 1.2388 23.8325 -469.55 -177.943 368.816
lowerback 23.1427 1.119 0.208424
upperback 8.65328 -0.0495628 -3.79578
thorax -3.41171 -0.637266 -4.16414
lowerneck -21.2823 -8.03346 -3.73
upperneck 2.94542 -11.2837 9.04829
head 4.98152 -5.27911 2.22132
rclavicle -1.59028e-014 -1.51076e-014
rhumerus -209.777 -184.673 125.731
rradius 80.2354
rwrist -7.66946
rhand -30.9815 16.4401
rfingers 7.12502
rthumb -4.26532 -13.497
lclavicle -1.59028e-014 -1.51076e-014
lhumerus -377.077 -36.2762 -300.428
lradius 45.2559
lwrist -25.9286
lhand -28.7043 -17.7292
lfingers 7.12502
lthumb -2.06617 12.2406
rfemur -26.6868 -16.4158 -13.1594
rtibia 110.038
rfoot 37.0073 13.8948
rtoes 1.7015
lfemur -38.9532 -1.72739 -0.039281
ltibia 120.583
lfoot 31.1264 -10.3649
ltoes 9.26712
582
root -0.436157 1.23882 23.833 -469.568 -177.979 368.79
lowerback 23.1727 1.12795 0.24024
upperback 8.64506 -0.0314373 -3.78248
thorax -3.43388 -0.628389 -4.17298
lowerneck -21.2621 -8.01415 -3.78594
upperneck 2.89371 -11.2354 9.0362
head 4.9612 -5.25786 2.23369
rclavicle -6.36111e-015 1.98785e-014
rhumerus -209.985 -185.057 125.386
rradius 79.7189
rwrist -7.72982
rhand -30.5266 16.3733
rfingers 7.12502
rthumb -3.82597 -13.5721
lclavicle -6.36111e-015 1.98785e-014
lhumerus -377.371 -36.4245 -300.138
lradius 45.2559
lwrist -25.805
lhand -28.6547 -17.6637
lfingers 7.12502
lthumb -2.01824 12.3065
rfemur -26.6635 -16.3727 -13.0902
rtibia 110.027
rfoot 36.9996 13.8742
rtoes 1.6237
lfemur -38.9096 -1.77162 -0.017571
ltibia 120.564
lfoot 31.0793 -10.3575
ltoes 8.86318
